<?xml version="1.0" encoding="UTF-8" standalone="no"?>
<!-- Created with Inkscape (http://www.inkscape.org/) -->

<svg
   width="1024mm"
   height="500mm"
   viewBox="0 0 1024 500.00001"
   version="1.1"
   id="svg5"
   xml:space="preserve"
   inkscape:version="1.2.2 (b0a8486541, 2022-12-01)"
   sodipodi:docname="iconBig.svg"
   xmlns:inkscape="http://www.inkscape.org/namespaces/inkscape"
   xmlns:sodipodi="http://sodipodi.sourceforge.net/DTD/sodipodi-0.dtd"
   xmlns="http://www.w3.org/2000/svg"
   xmlns:svg="http://www.w3.org/2000/svg"><sodipodi:namedview
     id="namedview7"
     pagecolor="#ffffff"
     bordercolor="#000000"
     borderopacity="0.25"
     inkscape:showpageshadow="2"
     inkscape:pageopacity="0.0"
     inkscape:pagecheckerboard="0"
     inkscape:deskcolor="#d1d1d1"
     inkscape:document-units="mm"
     showgrid="false"
     inkscape:zoom="0.25858552"
     inkscape:cx="2494.3392"
     inkscape:cy="1044.142"
     inkscape:window-width="1920"
     inkscape:window-height="1001"
     inkscape:window-x="0"
     inkscape:window-y="0"
     inkscape:window-maximized="1"
     inkscape:current-layer="layer1" /><defs
     id="defs2" /><g
     inkscape:label="Ebene 1"
     inkscape:groupmode="layer"
     id="layer1"
     style="fill:#ffd42a"><rect
       style="fill:#ffd42a;stroke:#ffcc00;stroke-width:0.999686"
       id="rect180"
       width="1026.2966"
       height="498.58392"
       x="0.36755195"
       y="0.87914908"
       ry="0.31849426" /><g
       inkscape:label="Layer 1"
       id="layer1-6"
       transform="matrix(20.49634,0,0,19.189587,-1285.7291,-4959.8098)"><path
         style="fill:#ffffff;stroke:#000000;stroke-width:0.618;stroke-linecap:butt;stroke-miterlimit:4;stroke-dasharray:none"
         d="m 78.345118,275.2836 c -2.057514,-0.0687 -2.75859,0.33861 -3.81687,-0.96435 -0.369426,-0.47028 -0.378666,-0.6108 -0.378666,-5.75418 0,-5.92509 -0.0216,-5.81835 1.289496,-6.41448 0.679254,-0.30888 1.3596,-0.32703 12.247401,-0.32703 10.88781,0 11.56815,0.018 12.24741,0.32703 1.310941,0.59613 1.289491,0.48939 1.289491,6.41448 0,7.2123 0.49944,6.71853 -6.795541,6.71853 h -8.55003 c -2.31009,2.53527 -7.297173,5.03307 -10.083537,5.18193 0.934116,-1.43949 2.802348,-3.52656 2.550846,-5.18193 z"
         id="path5298"
         inkscape:connector-curvature="0" /><path
         inkscape:connector-curvature="0"
         id="path5514"
         style="font-style:normal;font-variant:normal;font-weight:normal;font-stretch:normal;font-size:2.82222px;line-height:13.2292px;font-family:'Comic Sans MS';-inkscape-font-specification:'Comic Sans MS';text-align:center;letter-spacing:0px;word-spacing:0px;text-anchor:middle;fill:#000000;fill-opacity:1;stroke:none;stroke-width:0.79375px;stroke-linecap:butt;stroke-linejoin:miter;stroke-opacity:1"
         d="m 81.78046,271.63935 q -1.165821,0 -1.976106,-0.69867 -0.859896,-0.74415 -0.859896,-1.91823 0,-1.4304 0.847491,-2.60037 0.946713,-1.2981 2.36058,-1.2981 1.360125,0 2.021583,0.61185 0.690396,0.63666 0.690396,2.00919 0,1.4304 -0.777213,2.57967 -0.892968,1.31466 -2.306835,1.31466 z m 0.372069,-5.66787 q -1.012857,0 -1.715658,1.00872 -0.649056,0.92604 -0.649056,2.04225 0,0.79788 0.59118,1.2981 0.566373,0.4713 1.401465,0.4713 1.004589,0 1.657779,-1.01286 0.582912,-0.90537 0.582912,-2.03397 0,-0.98808 -0.442353,-1.38906 -0.421677,-0.38448 -1.426269,-0.38448 z" /><path
         inkscape:connector-curvature="0"
         id="path5516"
         style="font-style:normal;font-variant:normal;font-weight:normal;font-stretch:normal;font-size:2.82222px;line-height:13.2292px;font-family:'Comic Sans MS';-inkscape-font-specification:'Comic Sans MS';text-align:center;letter-spacing:0px;word-spacing:0px;text-anchor:middle;fill:#000000;fill-opacity:1;stroke:none;stroke-width:0.79375px;stroke-linecap:butt;stroke-linejoin:miter;stroke-opacity:1"
         d="m 89.263207,271.64349 q -0.29352,0 -0.384471,-0.31419 -0.09507,-0.339 -0.17364,-0.96327 -0.07443,-0.59943 -0.07443,-0.98391 0,-0.1074 0.0084,-0.32661 0.0123,-0.219 0.0123,-0.32658 0,-0.77721 -0.388605,-0.77721 -0.525033,0 -0.938445,0.47541 -0.21084,0.2439 -0.578775,0.93018 0,1.57509 -0.1323,1.8645 -0.11574,0.2562 -0.35967,0.2562 -0.1695,0 -0.29766,-0.1158 -0.12816,-0.1158 -0.12816,-0.2811 0,-0.0579 0.0372,-0.1818 0.03306,-0.1035 0.04548,-0.60357 l 0.0123,-0.61185 0.0123,-3.03858 q 0.0288,-0.51264 0.0288,-0.69039 0,-0.2109 -0.04134,-0.3969 -0.0372,-0.1902 -0.0372,-0.39273 0,-0.1737 0.11988,-0.2853 0.11988,-0.1158 0.29352,-0.1158 0.338997,0 0.396873,0.36381 0.06615,0.40101 0.06615,0.72345 0,0.4341 -0.0288,0.90537 -0.0249,0.45063 -0.0207,0.9054 l 0.0042,0.36378 q 0.338997,-0.45474 0.723468,-0.678 0.388608,-0.2274 0.82269,-0.2274 0.686262,0 0.942579,0.44649 0.18189,0.31419 0.2067,1.05834 l 0.03306,0.7896 0.08268,0.85992 q 0.05787,0.48369 0.14055,0.85161 0.0165,0.0702 0.0165,0.12 0,0.1695 -0.12402,0.2811 -0.12402,0.1158 -0.29766,0.1158 z" /><path
         inkscape:connector-curvature="0"
         id="path5518"
         style="font-style:normal;font-variant:normal;font-weight:normal;font-stretch:normal;font-size:2.82222px;line-height:13.2292px;font-family:'Comic Sans MS';-inkscape-font-specification:'Comic Sans MS';text-align:center;letter-spacing:0px;word-spacing:0px;text-anchor:middle;fill:#000000;fill-opacity:1;stroke:none;stroke-width:0.79375px;stroke-linecap:butt;stroke-linejoin:miter;stroke-opacity:1"
         d="m 91.226911,271.77165 q -0.21498,0 -0.363801,-0.1488 -0.14883,-0.1488 -0.14883,-0.36381 0,-0.2109 0.14883,-0.35967 0.14883,-0.153 0.363801,-0.153 0.21084,0 0.35967,0.153 0.15297,0.1488 0.15297,0.35967 0,0.2151 -0.15297,0.36381 -0.14883,0.1488 -0.35967,0.1488 z" /><path
         inkscape:connector-curvature="0"
         id="path5520"
         style="font-style:normal;font-variant:normal;font-weight:normal;font-stretch:normal;font-size:2.82222px;line-height:13.2292px;font-family:'Comic Sans MS';-inkscape-font-specification:'Comic Sans MS';text-align:center;letter-spacing:0px;word-spacing:0px;text-anchor:middle;fill:#000000;fill-opacity:1;stroke:none;stroke-width:0.79375px;stroke-linecap:butt;stroke-linejoin:miter;stroke-opacity:1"
         d="m 93.343579,271.77165 q -0.21498,0 -0.363804,-0.1488 -0.14883,-0.1488 -0.14883,-0.36381 0,-0.2109 0.14883,-0.35967 0.14883,-0.153 0.363804,-0.153 0.21084,0 0.359667,0.153 0.15297,0.1488 0.15297,0.35967 0,0.2151 -0.15297,0.36381 -0.14883,0.1488 -0.359667,0.1488 z" /><path
         inkscape:connector-curvature="0"
         id="path5522"
         style="font-style:normal;font-variant:normal;font-weight:normal;font-stretch:normal;font-size:2.82222px;line-height:13.2292px;font-family:'Comic Sans MS';-inkscape-font-specification:'Comic Sans MS';text-align:center;letter-spacing:0px;word-spacing:0px;text-anchor:middle;fill:#000000;fill-opacity:1;stroke:none;stroke-width:0.79375px;stroke-linecap:butt;stroke-linejoin:miter;stroke-opacity:1"
         d="m 95.460247,271.77165 q -0.21498,0 -0.363804,-0.1488 -0.14883,-0.1488 -0.14883,-0.36381 0,-0.2109 0.14883,-0.35967 0.14883,-0.153 0.363804,-0.153 0.21084,0 0.359667,0.153 0.15297,0.1488 0.15297,0.35967 0,0.2151 -0.15297,0.36381 -0.14883,0.1488 -0.359667,0.1488 z" /></g></g></svg>
